<svg xmlns="http://www.w3.org/2000/svg" width="36" height="32" viewBox="0 0 256 228">
  <!-- Main window frame -->
  <path fill="#2563EB" d="
    M30 0 h196 a30 30 0 0 1 30 30 v168 a30 30 0 0 1 -30 30 h-196 a30 30 0 0 1 -30 -30 v-168 a30 30 0 0 1 30 -30
    M40 40 h176 v148 h-176 z
  "/>
  
  <!-- Code brackets left -->
  <path fill="#60A5FA" d="
    M70 80 l-20 34 l20 34
    M90 80 l-20 34 l20 34
  " stroke="#60A5FA" stroke-width="12" fill="none"/>
  
  <!-- Code brackets right -->
  <path fill="#60A5FA" d="
    M186 80 l20 34 l-20 34
    M166 80 l20 34 l-20 34
  " stroke="#60A5FA" stroke-width="12" fill="none"/>
  
  <!-- Center code lines -->
  <path fill="#93C5FD" d="
    M110 90 h36
    M110 114 h56
    M110 138 h46
  " stroke="#93C5FD" stroke-width="8" stroke-linecap="round"/>
  
  <!-- Cursor -->
  <rect x="102" y="82" width="3" height="16" fill="#F3F4F6">
    <animate attributeName="opacity"
      values="1;0;1" dur="1.5s"
      repeatCount="indefinite"/>
  </rect>
  
  <!-- Window controls -->
  <circle cx="45" cy="20" r="6" fill="#EF4444"/>
  <circle cx="65" cy="20" r="6" fill="#F59E0B"/>
  <circle cx="85" cy="20" r="6" fill="#10B981"/>
</svg>